# Blender 4.3.2
# www.blender.org
mtllib hollow_knight_cube.mtl
o Cube
v 1.000000 1.000000 -1.000000
v 1.000000 -1.000000 -1.000000
v 1.000000 1.000000 1.000000
v 1.000000 -1.000000 1.000000
v -1.000000 1.000000 -1.000000
v -1.000000 -1.000000 -1.000000
v -1.000000 1.000000 1.000000
v -1.000000 -1.000000 1.000000
vn -0.0000 1.0000 -0.0000
vn -0.0000 -0.0000 1.0000
vn -1.0000 -0.0000 -0.0000
vn -0.0000 -1.0000 -0.0000
vn 1.0000 -0.0000 -0.0000
vn -0.0000 -0.0000 -1.0000
vt 0.202083 0.211341
vt 0.990658 0.211341
vt 0.990658 0.999917
vt 0.202083 0.999917
vt 0.744290 0.050556
vt 0.742873 0.993602
vt 0.271266 0.991111
vt 0.272683 0.048065
vt 0.825357 0.181375
vt 0.824362 0.893532
vt 0.463706 0.892843
vt 0.464700 0.180687
vt 0.941051 0.952478
vt 0.059543 0.948794
vt 0.062949 0.067286
vt 0.944457 0.070971
vt 0.996988 0.228049
vt 0.996098 0.887251
vt 0.003012 0.886567
vt 0.003902 0.227365
vt 1.090017 0.204438
vt 1.091282 0.688298
vt -0.090017 0.689562
vt -0.091281 0.205703
s 0
usemtl Material_1
f 1/1/1 5/2/1 7/3/1 3/4/1
usemtl Material_2
f 6/21/6 5/22/6 1/23/6 2/24/6
usemtl Material_3
f 8/9/3 7/10/3 5/11/3 6/12/3
usemtl Material_4
f 4/5/2 3/6/2 7/7/2 8/8/2
usemtl Material_5
f 2/17/5 1/18/5 3/19/5 4/20/5
usemtl Material_6
f 6/13/4 2/14/4 4/15/4 8/16/4
